<mxfile host="65bd71144e">
    <diagram id="AVgQ3DpeHb0OTJTnM_64" name="Page-1">
        <mxGraphModel dx="1523" dy="836" grid="1" gridSize="10" guides="1" tooltips="1" connect="1" arrows="1" fold="1" page="1" pageScale="1" pageWidth="850" pageHeight="1100" math="0" shadow="0">
            <root>
                <mxCell id="0"/>
                <mxCell id="1" parent="0"/>
                <mxCell id="13" value="" style="rounded=1;whiteSpace=wrap;html=1;" vertex="1" parent="1">
                    <mxGeometry x="90" y="310" width="720" height="90" as="geometry"/>
                </mxCell>
                <mxCell id="15" value="&lt;div style=&quot;color: rgb(171, 178, 191); background-color: rgb(40, 44, 52); font-family: Menlo, Monaco, &amp;quot;Courier New&amp;quot;, monospace; line-height: 18px;&quot;&gt;&lt;span style=&quot;color: #e5c07b;&quot;&gt;BusinessData&lt;/span&gt;&lt;/div&gt;" style="rounded=0;whiteSpace=wrap;html=1;fillColor=#f0a30a;fontColor=#000000;strokeColor=#BD7000;gradientColor=default;" vertex="1" parent="1">
                    <mxGeometry x="240" y="330" width="110" height="50" as="geometry"/>
                </mxCell>
                <mxCell id="16" value="&lt;div style=&quot;color: rgb(171, 178, 191); background-color: rgb(40, 44, 52); font-family: Menlo, Monaco, &amp;quot;Courier New&amp;quot;, monospace; line-height: 18px;&quot;&gt;&lt;div style=&quot;line-height: 18px;&quot;&gt;&lt;span style=&quot;color: #e5c07b;&quot;&gt;ViewData&lt;/span&gt;&lt;/div&gt;&lt;/div&gt;" style="rounded=0;whiteSpace=wrap;html=1;fillColor=#6d8764;fontColor=#ffffff;strokeColor=#3A5431;gradientColor=default;gradientDirection=west;" vertex="1" parent="1">
                    <mxGeometry x="370" y="330" width="110" height="50" as="geometry"/>
                </mxCell>
                <mxCell id="19" value="&lt;div style=&quot;color: rgb(171, 178, 191); background-color: rgb(40, 44, 52); font-family: Menlo, Monaco, &amp;quot;Courier New&amp;quot;, monospace; line-height: 18px;&quot;&gt;&lt;span style=&quot;color: #e5c07b;&quot;&gt;UserData&lt;/span&gt;&lt;/div&gt;" style="rounded=0;whiteSpace=wrap;html=1;fillColor=#f0a30a;fontColor=#000000;strokeColor=#BD7000;gradientColor=default;gradientDirection=south;" vertex="1" parent="1">
                    <mxGeometry x="110" y="330" width="110" height="50" as="geometry"/>
                </mxCell>
                <mxCell id="21" value="" style="rounded=1;whiteSpace=wrap;html=1;gradientColor=default;gradientDirection=west;fillColor=none;" vertex="1" parent="1">
                    <mxGeometry x="30" y="190" width="800" height="770" as="geometry"/>
                </mxCell>
                <mxCell id="22" value="" style="rounded=1;whiteSpace=wrap;html=1;" vertex="1" parent="1">
                    <mxGeometry x="90" y="420" width="720" height="85" as="geometry"/>
                </mxCell>
                <mxCell id="23" value="&lt;div style=&quot;color: rgb(171, 178, 191); background-color: rgb(40, 44, 52); font-family: Menlo, Monaco, &amp;quot;Courier New&amp;quot;, monospace; line-height: 18px;&quot;&gt;&lt;span style=&quot;color: #e5c07b;&quot;&gt;BusinessData&lt;/span&gt;&lt;/div&gt;" style="rounded=0;whiteSpace=wrap;html=1;fillColor=#f0a30a;fontColor=#000000;strokeColor=#BD7000;gradientColor=default;" vertex="1" parent="1">
                    <mxGeometry x="240" y="435" width="110" height="50" as="geometry"/>
                </mxCell>
                <mxCell id="24" value="&lt;div style=&quot;color: rgb(171, 178, 191); background-color: rgb(40, 44, 52); font-family: Menlo, Monaco, &amp;quot;Courier New&amp;quot;, monospace; line-height: 18px;&quot;&gt;&lt;div style=&quot;line-height: 18px;&quot;&gt;&lt;span style=&quot;color: #e5c07b;&quot;&gt;ViewData&lt;/span&gt;&lt;/div&gt;&lt;/div&gt;" style="rounded=0;whiteSpace=wrap;html=1;fillColor=#6d8764;fontColor=#ffffff;strokeColor=#3A5431;gradientColor=default;gradientDirection=west;" vertex="1" parent="1">
                    <mxGeometry x="370" y="435" width="110" height="50" as="geometry"/>
                </mxCell>
                <mxCell id="25" value="&lt;div style=&quot;color: rgb(171, 178, 191); background-color: rgb(40, 44, 52); font-family: Menlo, Monaco, &amp;quot;Courier New&amp;quot;, monospace; line-height: 18px;&quot;&gt;&lt;div style=&quot;line-height: 18px;&quot;&gt;&lt;span style=&quot;color: #e5c07b;&quot;&gt;EventData&lt;/span&gt;&lt;/div&gt;&lt;/div&gt;" style="rounded=0;whiteSpace=wrap;html=1;fillColor=#6d8764;fontColor=#ffffff;strokeColor=#3A5431;gradientColor=default;gradientDirection=west;" vertex="1" parent="1">
                    <mxGeometry x="500" y="435" width="130" height="50" as="geometry"/>
                </mxCell>
                <mxCell id="27" value="&lt;div style=&quot;color: rgb(171, 178, 191); background-color: rgb(40, 44, 52); font-family: Menlo, Monaco, &amp;quot;Courier New&amp;quot;, monospace; line-height: 18px;&quot;&gt;&lt;span style=&quot;color: #e5c07b;&quot;&gt;UserData&lt;/span&gt;&lt;/div&gt;" style="rounded=0;whiteSpace=wrap;html=1;fillColor=#f0a30a;fontColor=#000000;strokeColor=#BD7000;gradientColor=default;gradientDirection=south;" vertex="1" parent="1">
                    <mxGeometry x="100" y="435" width="110" height="50" as="geometry"/>
                </mxCell>
                <mxCell id="28" value="Adobe Data Layer" style="text;html=1;strokeColor=none;fillColor=none;align=center;verticalAlign=middle;whiteSpace=wrap;rounded=0;" vertex="1" parent="1">
                    <mxGeometry x="335" y="240" width="180" height="30" as="geometry"/>
                </mxCell>
                <mxCell id="30" value="" style="rounded=1;whiteSpace=wrap;html=1;" vertex="1" parent="1">
                    <mxGeometry x="90" y="530" width="720" height="85" as="geometry"/>
                </mxCell>
                <mxCell id="31" value="&lt;div style=&quot;color: rgb(171, 178, 191); background-color: rgb(40, 44, 52); font-family: Menlo, Monaco, &amp;quot;Courier New&amp;quot;, monospace; line-height: 18px;&quot;&gt;&lt;span style=&quot;color: #e5c07b;&quot;&gt;BusinessData&lt;/span&gt;&lt;/div&gt;" style="rounded=0;whiteSpace=wrap;html=1;fillColor=#f0a30a;fontColor=#000000;strokeColor=#BD7000;gradientColor=default;" vertex="1" parent="1">
                    <mxGeometry x="240" y="545" width="110" height="50" as="geometry"/>
                </mxCell>
                <mxCell id="32" value="&lt;div style=&quot;color: rgb(171, 178, 191); background-color: rgb(40, 44, 52); font-family: Menlo, Monaco, &amp;quot;Courier New&amp;quot;, monospace; line-height: 18px;&quot;&gt;&lt;div style=&quot;line-height: 18px;&quot;&gt;&lt;span style=&quot;color: #e5c07b;&quot;&gt;ViewData&lt;/span&gt;&lt;/div&gt;&lt;/div&gt;" style="rounded=0;whiteSpace=wrap;html=1;fillColor=#6d8764;fontColor=#ffffff;strokeColor=#3A5431;gradientColor=default;gradientDirection=west;" vertex="1" parent="1">
                    <mxGeometry x="370" y="545" width="110" height="50" as="geometry"/>
                </mxCell>
                <mxCell id="33" value="&lt;div style=&quot;color: rgb(171, 178, 191); background-color: rgb(40, 44, 52); font-family: Menlo, Monaco, &amp;quot;Courier New&amp;quot;, monospace; line-height: 18px;&quot;&gt;&lt;div style=&quot;line-height: 18px;&quot;&gt;&lt;span style=&quot;color: #e5c07b;&quot;&gt;EventData&lt;/span&gt;&lt;/div&gt;&lt;/div&gt;" style="rounded=0;whiteSpace=wrap;html=1;fillColor=#6d8764;fontColor=#ffffff;strokeColor=#3A5431;gradientColor=default;gradientDirection=west;" vertex="1" parent="1">
                    <mxGeometry x="500" y="545" width="130" height="50" as="geometry"/>
                </mxCell>
                <mxCell id="35" value="&lt;div style=&quot;color: rgb(171, 178, 191); background-color: rgb(40, 44, 52); font-family: Menlo, Monaco, &amp;quot;Courier New&amp;quot;, monospace; line-height: 18px;&quot;&gt;&lt;span style=&quot;color: #e5c07b;&quot;&gt;UserData&lt;/span&gt;&lt;/div&gt;" style="rounded=0;whiteSpace=wrap;html=1;fillColor=#f0a30a;fontColor=#000000;strokeColor=#BD7000;gradientColor=default;gradientDirection=south;" vertex="1" parent="1">
                    <mxGeometry x="100" y="545" width="110" height="50" as="geometry"/>
                </mxCell>
                <mxCell id="36" value="" style="rounded=1;whiteSpace=wrap;html=1;" vertex="1" parent="1">
                    <mxGeometry x="90" y="640" width="720" height="85" as="geometry"/>
                </mxCell>
                <mxCell id="37" value="&lt;div style=&quot;color: rgb(171, 178, 191); background-color: rgb(40, 44, 52); font-family: Menlo, Monaco, &amp;quot;Courier New&amp;quot;, monospace; line-height: 18px;&quot;&gt;&lt;span style=&quot;color: #e5c07b;&quot;&gt;BusinessData&lt;/span&gt;&lt;/div&gt;" style="rounded=0;whiteSpace=wrap;html=1;fillColor=#f0a30a;fontColor=#000000;strokeColor=#BD7000;gradientColor=default;" vertex="1" parent="1">
                    <mxGeometry x="240" y="655" width="110" height="50" as="geometry"/>
                </mxCell>
                <mxCell id="38" value="&lt;div style=&quot;color: rgb(171, 178, 191); background-color: rgb(40, 44, 52); font-family: Menlo, Monaco, &amp;quot;Courier New&amp;quot;, monospace; line-height: 18px;&quot;&gt;&lt;div style=&quot;line-height: 18px;&quot;&gt;&lt;span style=&quot;color: #e5c07b;&quot;&gt;ViewData&lt;/span&gt;&lt;/div&gt;&lt;/div&gt;" style="rounded=0;whiteSpace=wrap;html=1;fillColor=#6d8764;fontColor=#ffffff;strokeColor=#3A5431;gradientColor=default;gradientDirection=west;" vertex="1" parent="1">
                    <mxGeometry x="370" y="655" width="110" height="50" as="geometry"/>
                </mxCell>
                <mxCell id="39" value="&lt;div style=&quot;color: rgb(171, 178, 191); background-color: rgb(40, 44, 52); font-family: Menlo, Monaco, &amp;quot;Courier New&amp;quot;, monospace; line-height: 18px;&quot;&gt;&lt;div style=&quot;line-height: 18px;&quot;&gt;&lt;span style=&quot;color: #e5c07b;&quot;&gt;EventData&lt;/span&gt;&lt;/div&gt;&lt;/div&gt;" style="rounded=0;whiteSpace=wrap;html=1;fillColor=#6d8764;fontColor=#ffffff;strokeColor=#3A5431;gradientColor=default;gradientDirection=west;" vertex="1" parent="1">
                    <mxGeometry x="500" y="655" width="130" height="50" as="geometry"/>
                </mxCell>
                <mxCell id="40" value="&lt;div style=&quot;color: rgb(171, 178, 191); background-color: rgb(40, 44, 52); font-family: Menlo, Monaco, &amp;quot;Courier New&amp;quot;, monospace; line-height: 18px;&quot;&gt;&lt;div style=&quot;line-height: 18px;&quot;&gt;&lt;span style=&quot;color: #e5c07b;&quot;&gt;ErrorData&lt;/span&gt;&lt;/div&gt;&lt;/div&gt;" style="rounded=0;whiteSpace=wrap;html=1;fillColor=#6d8764;fontColor=#ffffff;strokeColor=#3A5431;gradientColor=default;gradientDirection=west;" vertex="1" parent="1">
                    <mxGeometry x="650" y="655" width="130" height="50" as="geometry"/>
                </mxCell>
                <mxCell id="41" value="&lt;div style=&quot;color: rgb(171, 178, 191); background-color: rgb(40, 44, 52); font-family: Menlo, Monaco, &amp;quot;Courier New&amp;quot;, monospace; line-height: 18px;&quot;&gt;&lt;span style=&quot;color: #e5c07b;&quot;&gt;UserData&lt;/span&gt;&lt;/div&gt;" style="rounded=0;whiteSpace=wrap;html=1;fillColor=#f0a30a;fontColor=#000000;strokeColor=#BD7000;gradientColor=default;gradientDirection=south;" vertex="1" parent="1">
                    <mxGeometry x="100" y="655" width="110" height="50" as="geometry"/>
                </mxCell>
            </root>
        </mxGraphModel>
    </diagram>
</mxfile>